<svg xmlns="http://www.w3.org/2000/svg" viewBox="0 0 512 512" width="512" height="512" role="img" aria-label="Pour-Over Coffee Set">
  <defs>
    <linearGradient id="bg" x1="0" y1="0" x2="1" y2="1">
      <stop offset="0" stop-color="#78350f"/>
      <stop offset="1" stop-color="#d97706"/>
    </linearGradient>
    <radialGradient id="shine" cx="0.3" cy="0.2" r="0.9">
      <stop offset="0" stop-color="#fff" stop-opacity="0.35"/>
      <stop offset="1" stop-color="#fff" stop-opacity="0"/>
    </radialGradient>
  </defs>
  <rect width="512" height="512" fill="url(#bg)"/>
  <rect width="512" height="512" fill="url(#shine)"/>
  <circle cx="174" cy="107" r="120" fill="#fff" opacity="0.08"/>
  <circle cx="377" cy="375" r="150" fill="#000" opacity="0.08"/>
  <ellipse cx="256" cy="400" rx="130" ry="18" fill="#000" opacity="0.18"/>
  <g transform="translate(116 106) scale(11.67)" fill="none" stroke="#fff" stroke-width="1.6" stroke-linecap="round" stroke-linejoin="round">
    <path d="M10 2v2" />
  <path d="M14 2v2" />
  <path d="M16 8a1 1 0 0 1 1 1v8a4 4 0 0 1-4 4H7a4 4 0 0 1-4-4V9a1 1 0 0 1 1-1h14a4 4 0 1 1 0 8h-1" />
  <path d="M6 2v2" />
  </g>
</svg>
