<svg xmlns="http://www.w3.org/2000/svg" viewBox="0 0 512 512" width="512" height="512" role="img" aria-label="Retro FM Radio">
  <defs>
    <linearGradient id="bg" x1="0" y1="0" x2="1" y2="1">
      <stop offset="0" stop-color="#d97706"/>
      <stop offset="1" stop-color="#92400e"/>
    </linearGradient>
    <radialGradient id="shine" cx="0.3" cy="0.2" r="0.9">
      <stop offset="0" stop-color="#fff" stop-opacity="0.35"/>
      <stop offset="1" stop-color="#fff" stop-opacity="0"/>
    </radialGradient>
  </defs>
  <rect width="512" height="512" fill="url(#bg)"/>
  <rect width="512" height="512" fill="url(#shine)"/>
  <circle cx="133" cy="80" r="120" fill="#fff" opacity="0.08"/>
  <circle cx="372" cy="414" r="150" fill="#000" opacity="0.08"/>
  <ellipse cx="256" cy="400" rx="130" ry="18" fill="#000" opacity="0.18"/>
  <g transform="translate(116 106) scale(11.67)" fill="none" stroke="#fff" stroke-width="1.6" stroke-linecap="round" stroke-linejoin="round">
    <path d="M16.247 7.761a6 6 0 0 1 0 8.478" />
  <path d="M19.075 4.933a10 10 0 0 1 0 14.134" />
  <path d="M4.925 19.067a10 10 0 0 1 0-14.134" />
  <path d="M7.753 16.239a6 6 0 0 1 0-8.478" />
  <circle cx="12" cy="12" r="2" />
  </g>
</svg>
