<svg xmlns="http://www.w3.org/2000/svg" viewBox="0 0 512 512" width="512" height="512" role="img" aria-label="Studio Monitor Headset">
  <defs>
    <linearGradient id="bg" x1="0" y1="0" x2="1" y2="1">
      <stop offset="0" stop-color="#0ea5e9"/>
      <stop offset="1" stop-color="#6366f1"/>
    </linearGradient>
    <radialGradient id="shine" cx="0.3" cy="0.2" r="0.9">
      <stop offset="0" stop-color="#fff" stop-opacity="0.35"/>
      <stop offset="1" stop-color="#fff" stop-opacity="0"/>
    </radialGradient>
  </defs>
  <rect width="512" height="512" fill="url(#bg)"/>
  <rect width="512" height="512" fill="url(#shine)"/>
  <circle cx="175" cy="12" r="120" fill="#fff" opacity="0.08"/>
  <circle cx="461" cy="493" r="150" fill="#000" opacity="0.08"/>
  <ellipse cx="256" cy="400" rx="130" ry="18" fill="#000" opacity="0.18"/>
  <g transform="translate(116 106) scale(11.67)" fill="none" stroke="#fff" stroke-width="1.6" stroke-linecap="round" stroke-linejoin="round">
    <path d="M3 11h3a2 2 0 0 1 2 2v3a2 2 0 0 1-2 2H5a2 2 0 0 1-2-2v-5Zm0 0a9 9 0 1 1 18 0m0 0v5a2 2 0 0 1-2 2h-1a2 2 0 0 1-2-2v-3a2 2 0 0 1 2-2h3Z" />
  <path d="M21 16v2a4 4 0 0 1-4 4h-5" />
  </g>
</svg>
