<svg xmlns="http://www.w3.org/2000/svg" viewBox="0 0 512 512" width="512" height="512" role="img" aria-label="Travel Acoustic Guitar">
  <defs>
    <linearGradient id="bg" x1="0" y1="0" x2="1" y2="1">
      <stop offset="0" stop-color="#b45309"/>
      <stop offset="1" stop-color="#f59e0b"/>
    </linearGradient>
    <radialGradient id="shine" cx="0.3" cy="0.2" r="0.9">
      <stop offset="0" stop-color="#fff" stop-opacity="0.35"/>
      <stop offset="1" stop-color="#fff" stop-opacity="0"/>
    </radialGradient>
  </defs>
  <rect width="512" height="512" fill="url(#bg)"/>
  <rect width="512" height="512" fill="url(#shine)"/>
  <circle cx="144" cy="-22" r="120" fill="#fff" opacity="0.08"/>
  <circle cx="492" cy="533" r="150" fill="#000" opacity="0.08"/>
  <ellipse cx="256" cy="400" rx="130" ry="18" fill="#000" opacity="0.18"/>
  <g transform="translate(116 106) scale(11.67)" fill="none" stroke="#fff" stroke-width="1.6" stroke-linecap="round" stroke-linejoin="round">
    <path d="m11.9 12.1 4.514-4.514" />
  <path d="M20.1 2.3a1 1 0 0 0-1.4 0l-1.114 1.114A2 2 0 0 0 17 4.828v1.344a2 2 0 0 1-.586 1.414A2 2 0 0 1 17.828 7h1.344a2 2 0 0 0 1.414-.586L21.7 5.3a1 1 0 0 0 0-1.4z" />
  <path d="m6 16 2 2" />
  <path d="M8.23 9.85A3 3 0 0 1 11 8a5 5 0 0 1 5 5 3 3 0 0 1-1.85 2.77l-.92.38A2 2 0 0 0 12 18a4 4 0 0 1-4 4 6 6 0 0 1-6-6 4 4 0 0 1 4-4 2 2 0 0 0 1.85-1.23z" />
  </g>
</svg>
